<svg fill="none" xmlns="http://www.w3.org/2000/svg" viewBox="0 0 100 61">
<path fill-rule="evenodd" clip-rule="evenodd" d="M60.1823 28.4498C60.6145 24.9438 63.2599 23.5935 66.6571 23.5935C67.3117 23.5935 68.1107 23.7231 68.6681 23.8135L68.6682 23.8135L68.669 23.8136C68.8694 23.8461 69.0386 23.8736 69.1584 23.888L68.3779 27.4801C68.1081 27.3472 67.3564 27.1595 66.7356 27.1595C64.7712 27.1595 64.2317 28.4472 64.2317 30.457V37.907H60.088C56.7642 51.17 44.6345 61 30.2758 61C16.2393 61 4.41604 51.6027 0.785772 38.7881C0.756961 38.7125 0.445271 37.6359 0.199062 36.3638C0.154535 36.1396 0.0576233 35.5297 0 35.0761C0.0174979 35.1484 0.0273872 35.1864 0.0389096 35.2305C0.0498093 35.2723 0.0621704 35.3197 0.0838156 35.4072C0.251413 36.0718 0.58888 36.4841 0.628406 36.5324L0.631237 36.5359C1.49821 37.6568 2.89688 37.808 2.89688 37.808V37.8053C3.2531 37.8679 3.62765 37.9044 4.02054 37.9044H12.1009L12.6928 34.2602H5.39564C4.26413 34.2602 3.67218 33.6163 3.67218 32.2504V29.9982H10.8096L11.4016 26.4869H3.67218V22.6264H12.2083L12.774 18.9822H1.89633C6.46429 7.84885 17.4468 0 30.2758 0C46.5099 0 59.1032 12.5618 60.1718 28.4498C60.2033 28.4498 60.1509 28.4524 60.1823 28.4498ZM55.9679 37.907H60.0854L60.088 29.4378C60.088 25.3921 57.1257 23.5961 53.1942 23.5961C49.2627 23.5961 46.3003 25.3895 46.3003 29.4378V37.907H50.4204V30.457C50.4204 28.4472 51.2009 27.1595 53.1942 27.1595C55.1874 27.1595 55.9679 28.4472 55.9679 30.457V37.907ZM20.7968 38.1729C25.8336 38.1729 28.8771 35.1726 28.8771 30.0529H28.8745V18.9822H24.7544V25.1992C24.0001 24.3937 22.4914 23.5909 20.4458 23.5909C15.9748 23.5909 12.9862 26.513 12.9862 30.8819C12.9862 35.0631 16.1371 38.1729 20.7968 38.1729ZM42.6596 34.2602C41.6066 34.7424 40.4856 35.0917 39.2729 35.0917C37.3609 35.0917 35.1528 34.2081 34.7495 31.9011H45.4124C45.5198 26.8623 42.9346 23.5935 37.7642 23.5935C33.1858 23.5935 30.1972 26.6486 30.1972 30.7229C30.1972 35.4124 33.5368 38.1729 38.2776 38.1729C39.7051 38.1729 41.1326 37.9852 42.3165 37.503L42.6596 34.2602ZM37.9004 26.4869C36.122 26.4869 34.9931 27.6391 34.6421 29.1667H40.9702C40.7554 27.4801 39.5689 26.4869 37.9004 26.4869ZM20.9881 27.1569C18.725 27.1569 17.2976 28.7105 17.2976 30.8819C17.2976 33.0272 18.7512 34.633 20.9881 34.633C23.2249 34.633 24.731 33.1054 24.731 30.8819C24.731 28.6584 23.2223 27.1569 20.9881 27.1569ZM76.0025 23.5935C71.4241 23.5935 68.4355 26.6486 68.4355 30.7229C68.4355 35.4124 71.7751 38.1729 76.5159 38.1729C77.9434 38.1729 79.3709 37.9852 80.5548 37.503L80.8979 34.2602C79.8476 34.7425 78.7239 35.0918 77.5138 35.0918C75.6018 35.0918 73.3938 34.2081 72.9904 31.9011H83.6559C83.7581 26.8623 81.1729 23.5935 76.0025 23.5935ZM72.8778 29.1693C73.2288 27.6417 74.3603 26.4895 76.1361 26.4895C77.8072 26.4895 78.9911 27.4801 79.2059 29.1693H72.8778ZM95.8773 25.1992V18.9822H100V30.053C100 35.17 96.9564 38.1729 91.9196 38.1729C87.26 38.1729 84.1091 35.0631 84.1091 30.8819C84.1091 26.513 87.0976 23.5909 91.5687 23.5909C93.6143 23.5909 95.123 24.3964 95.8773 25.1992ZM88.4151 30.8845C88.4151 33.0272 89.8714 34.6356 92.1056 34.6356C94.3424 34.6356 95.8511 33.108 95.8485 30.8845C95.8485 28.661 94.3398 27.1595 92.1056 27.1595C89.8426 27.1595 88.4151 28.7131 88.4151 30.8845Z" fill="#F72717" style="--darkreader-inline-fill: #bd1407;" data-darkreader-inline-fill=""/>
</svg>